<svg width="70" height="70" viewBox="0 0 70 70" fill="none" xmlns="http://www.w3.org/2000/svg">
<path d="M35 70C54.33 70 70 54.33 70 35C70 15.67 54.33 0 35 0C15.67 0 0 15.67 0 35C0 52.2507 12.4802 66.5865 28.9042 69.471V45.7039H20V35.8252H28.9042V28.2961C28.9042 19.7323 34.1371 15 42.1507 15C45.9863 15 50 15.6675 50 15.6675V24.0777H45.5754C41.2192 24.0777 39.863 26.7143 39.863 29.4175V35.8252H49.589L48.0343 45.7039H39.863V69.5862C38.175 69.8446 36.4503 69.984 34.6947 69.9987C34.7964 69.9996 34.8981 70 35 70Z" fill="#CDC2B1"/>
</svg>
