<svg width="70" height="70" viewBox="0 0 70 70" fill="none" xmlns="http://www.w3.org/2000/svg">
<path d="M35 42.5C39.1421 42.5 42.5 39.1421 42.5 35C42.5 30.8579 39.1421 27.5 35 27.5C30.8579 27.5 27.5 30.8579 27.5 35C27.5 39.1421 30.8579 42.5 35 42.5Z" fill="#CDC2B1"/>
<path fill-rule="evenodd" clip-rule="evenodd" d="M36 15H34C29.7171 15 26.8056 15.0039 24.5552 15.1878C22.3631 15.3669 21.2421 15.6915 20.4601 16.0899C18.5785 17.0487 17.0487 18.5785 16.0899 20.4601C15.6915 21.2421 15.3669 22.3631 15.1878 24.5552C15.0039 26.8056 15 29.7171 15 34V36C15 40.2829 15.0039 43.1944 15.1878 45.4448C15.3669 47.6369 15.6915 48.7579 16.0899 49.5399C17.0487 51.4215 18.5785 52.9513 20.4601 53.9101C21.2421 54.3085 22.3631 54.6331 24.5552 54.8122C26.8056 54.9961 29.7171 55 34 55H36C40.2829 55 43.1944 54.9961 45.4448 54.8122C47.6369 54.6331 48.7579 54.3085 49.5399 53.9101C51.4215 52.9513 52.9513 51.4215 53.9101 49.5399C54.3085 48.7579 54.6331 47.6369 54.8122 45.4448C54.9961 43.1944 55 40.2829 55 36V34C55 29.7171 54.9961 26.8056 54.8122 24.5552C54.6331 22.3631 54.3085 21.2421 53.9101 20.4601C52.9513 18.5785 51.4215 17.0487 49.5399 16.0899C48.7579 15.6915 47.6369 15.3669 45.4448 15.1878C43.1944 15.0039 40.2829 15 36 15ZM52.5 21.25C52.5 23.3211 50.8211 25 48.75 25C46.6789 25 45 23.3211 45 21.25C45 19.1789 46.6789 17.5 48.75 17.5C50.8211 17.5 52.5 19.1789 52.5 21.25ZM35 47.5C41.9036 47.5 47.5 41.9036 47.5 35C47.5 28.0964 41.9036 22.5 35 22.5C28.0964 22.5 22.5 28.0964 22.5 35C22.5 41.9036 28.0964 47.5 35 47.5Z" fill="#CDC2B1"/>
<path fill-rule="evenodd" clip-rule="evenodd" d="M1.6349 8.19014C0 11.3988 0 15.5992 0 24V46C0 54.4008 0 58.6012 1.6349 61.8099C3.073 64.6323 5.36771 66.927 8.19014 68.3651C11.3988 70 15.5992 70 24 70H46C54.4008 70 58.6012 70 61.8099 68.3651C64.6323 66.927 66.927 64.6323 68.3651 61.8099C70 58.6012 70 54.4008 70 46V24C70 15.5992 70 11.3988 68.3651 8.19014C66.927 5.36771 64.6323 3.073 61.8099 1.6349C58.6012 0 54.4008 0 46 0H24C15.5992 0 11.3988 0 8.19014 1.6349C5.36771 3.073 3.073 5.36771 1.6349 8.19014ZM11.6349 18.1901C10 21.3988 10 25.5992 10 34V36C10 44.4008 10 48.6012 11.6349 51.8099C13.073 54.6323 15.3677 56.927 18.1901 58.3651C21.3988 60 25.5992 60 34 60H36C44.4008 60 48.6012 60 51.8099 58.3651C54.6323 56.927 56.927 54.6323 58.3651 51.8099C60 48.6012 60 44.4008 60 36V34C60 25.5992 60 21.3988 58.3651 18.1901C56.927 15.3677 54.6323 13.073 51.8099 11.6349C48.6012 10 44.4008 10 36 10H34C25.5992 10 21.3988 10 18.1901 11.6349C15.3677 13.073 13.073 15.3677 11.6349 18.1901Z" fill="#CDC2B1"/>
</svg>
