<svg width="70" height="70" viewBox="0 0 70 70" fill="none" xmlns="http://www.w3.org/2000/svg">
<path d="M35 70C54.33 70 70 54.33 70 35C70 15.67 54.33 0 35 0C15.67 0 0 15.67 0 35C0 49.2003 8.45674 61.4254 20.6087 66.9138C20.625 66.5352 20.6434 66.188 20.6591 65.8902C20.6805 65.4844 20.6971 65.1705 20.6971 64.994C20.6971 63.9423 21.4123 58.7259 21.4123 58.7259L25.7873 40.7632C25.1142 39.6694 24.6094 37.3557 24.6094 35.5889C24.6094 27.4279 29.1527 25.661 31.9291 25.661C35.4627 25.661 36.262 29.4892 36.262 32.3077C36.262 33.7985 35.4887 36.1321 34.6929 38.5335C33.8495 41.0786 32.9808 43.6999 32.9808 45.4747C32.9808 48.9243 36.3882 50.649 38.744 50.649C44.97 50.649 50.6911 42.8245 50.6911 35C50.6911 27.1755 47.0313 17.7103 35.0421 17.7103C23.0529 17.7103 17.6683 26.8389 17.6683 33.8221C17.6683 38.5336 19.4351 41.9831 20.3185 42.5721C20.5709 42.7964 21 43.4892 20.6971 44.4651C20.3942 45.4411 19.8418 47.6202 19.6034 48.5877C19.5753 48.8121 19.3089 49.1935 18.4676 48.9243C17.4159 48.5877 10.7272 44.381 10.7272 33.8221C10.7272 23.2632 19.0144 10.9795 35.0421 10.9795C51.0697 10.9795 59.2728 21.7488 59.2728 35C59.2728 48.2512 48.5457 56.7067 40.3846 56.7067C33.8558 56.7067 31.2981 53.79 30.8353 52.3317L28.3534 61.7968C27.7673 63.3671 26.6741 66.1894 25.3259 68.6459C28.3984 69.5277 31.644 70 35 70Z" fill="#CDC2B1"/>
</svg>
